# xmcd CD database file
#
# Track frame offsets:
#	150
#	15872
#	34007
#	53267
#	71465
#	86580
#	111595
#	128627
#	144320
#	161092
#	177472
#	196047
#
# Disc length: 2792 seconds
#
# Revision: 1
# Processed by: cddbd v1.5PL3 Copyright (c) Steve Scherf et al.
# Submitted via: CDex 1.50
#
DISCID=920ae60c
DTITLE=Peace - Under The Mercy
DYEAR=2000
DGENRE=Country
TTITLE0=Turn, Turn, Turn
TTITLE1=World Spinning
TTITLE2=2010
TTITLE3=Time Waits
TTITLE4=Man Of Sorrows
TTITLE5=Dance
TTITLE6=There Is A Man
TTITLE7=On Wings Of Eagles
TTITLE8=Lonely Dreamer
TTITLE9=Your Voice
TTITLE10=Under The Mercy
TTITLE11=Love Will Get You By
EXTD=YEAR: 2000
EXTT0=
EXTT1=
EXTT2=
EXTT3=
EXTT4=
EXTT5=
EXTT6=
EXTT7=
EXTT8=
EXTT9=
EXTT10=
EXTT11=
PLAYORDER=
